<?xml version="1.0" standalone="no"?>
<!DOCTYPE svg PUBLIC "-//W3C//DTD SVG 20010904//EN"
 "http://www.w3.org/TR/2001/REC-SVG-20010904/DTD/svg10.dtd">
<svg version="1.0" xmlns="http://www.w3.org/2000/svg"
 width="278.000000pt" height="300.000000pt" viewBox="0 0 278.000000 300.000000"
 preserveAspectRatio="xMidYMid meet">

<g transform="translate(0.000000,300.000000) scale(0.100000,-0.100000)"
fill="#000000" stroke="none">
<path d="M885 2988 c-113 -40 -159 -151 -121 -294 l13 -50 -51 -29 c-245 -136
-465 -369 -586 -618 -92 -191 -134 -380 -134 -602 1 -234 47 -433 149 -633
195 -383 570 -661 995 -738 126 -23 353 -23 477 -1 311 57 600 218 799 445
344 393 443 915 268 1404 -98 271 -298 525 -535 680 l-66 43 -5 90 c-6 95 -28
176 -57 212 -10 12 -35 33 -56 47 -67 46 -192 30 -247 -31 -25 -27 -48 -87
-48 -123 l0 -31 -57 8 c-32 4 -142 8 -245 8 l-186 0 -22 51 c-55 135 -173 201
-285 162z m161 -39 c84 -52 143 -202 214 -548 12 -56 39 -162 61 -235 22 -72
47 -174 55 -226 27 -165 65 -310 91 -340 28 -33 70 -50 99 -40 12 5 30 30 43
59 25 59 50 216 44 281 -3 25 5 120 17 210 16 116 24 246 29 440 6 254 8 278
28 315 64 121 247 109 304 -21 34 -75 43 -189 30 -384 -6 -96 -11 -247 -11
-335 0 -112 -8 -217 -25 -350 -26 -198 -29 -271 -19 -373 9 -84 24 -68 17 18
-7 85 15 292 31 287 17 -5 182 -226 212 -285 35 -69 35 -136 0 -220 -15 -34
-35 -116 -46 -189 -26 -160 -28 -168 -112 -340 -56 -114 -82 -155 -129 -204
-32 -34 -59 -63 -59 -66 0 -7 63 38 98 71 36 34 39 29 16 -38 -44 -130 -286
-299 -484 -340 -41 -8 -126 -20 -188 -27 -192 -21 -291 10 -370 115 -23 30
-42 57 -42 59 0 5 170 -28 193 -38 9 -4 17 -4 17 -1 0 11 -81 42 -139 55 -126
27 -272 122 -325 212 -19 32 -19 32 1 27 12 -3 27 -2 34 3 11 7 10 9 -4 9 -29
0 -96 38 -142 81 -34 31 -46 51 -55 92 -7 29 -22 66 -33 82 -25 34 -25 47 -8
290 7 103 16 161 35 220 46 143 84 187 171 200 71 11 74 5 81 -204 l7 -184
-39 -34 -39 -34 33 16 34 17 -7 -31 c-9 -44 2 -39 15 7 25 91 31 171 21 296
-19 243 26 347 154 358 38 3 39 2 47 -37 16 -74 49 -299 55 -372 6 -77 23 -91
23 -19 0 99 -64 474 -109 642 -11 40 -29 134 -40 211 -19 134 -52 271 -127
533 -57 202 -35 279 94 326 48 18 102 12 148 -17z"/>
<path d="M887 2925 c-42 -14 -88 -52 -86 -69 0 -6 3 -6 5 1 16 39 150 81 209
65 38 -10 74 -72 82 -141 5 -44 3 -52 -20 -74 -28 -29 -112 -57 -168 -57 -40
0 -45 6 -85 114 -24 66 -31 40 -9 -39 29 -107 63 -124 183 -89 66 20 132 77
132 116 0 45 -41 147 -67 168 -31 24 -117 27 -176 5z"/>
<path d="M1815 2914 c-11 -3 -31 -14 -45 -25 l-25 -20 32 15 c43 21 129 20
179 -3 38 -17 41 -23 47 -66 12 -85 9 -105 -22 -136 -28 -27 -34 -29 -108 -29
-107 0 -115 7 -121 103 -2 43 -9 77 -13 77 -10 0 -12 -140 -3 -165 17 -42 155
-62 227 -31 54 22 70 57 65 142 -5 77 -15 97 -57 119 -28 14 -124 26 -156 19z"/>
<path d="M1030 2534 c-59 -16 -98 -42 -45 -30 58 13 135 37 135 41 0 8 -33 4
-90 -11z"/>
<path d="M1815 2510 c-4 -6 22 -10 72 -9 54 1 70 3 53 9 -36 12 -118 12 -125
0z"/>
<path d="M1104 2479 c-34 -16 -81 -33 -105 -38 l-44 -9 61 -1 c53 -1 67 3 102
28 22 16 43 34 47 40 8 14 11 15 -61 -20z"/>
<path d="M1925 2439 c-16 -6 -52 -8 -80 -6 l-50 5 44 -14 c45 -14 95 -8 131
16 13 9 13 10 0 9 -8 0 -28 -5 -45 -10z"/>
<path d="M1130 2060 c-12 -8 -12 -10 5 -10 11 0 27 5 35 10 12 8 12 10 -5 10
-11 0 -27 -5 -35 -10z"/>
<path d="M1850 2050 c8 -5 24 -10 35 -10 17 0 17 2 5 10 -8 5 -24 10 -35 10
-17 0 -17 -2 -5 -10z"/>
<path d="M1121 2010 c-52 -24 -50 -37 2 -15 20 8 58 15 84 16 36 0 43 3 28 9
-33 14 -67 11 -114 -10z"/>
<path d="M1795 2005 c-29 -14 -29 -14 22 -8 29 3 66 0 84 -6 37 -13 50 -8 21
8 -35 19 -95 22 -127 6z"/>
<path d="M1230 1906 c-25 -8 -76 -21 -113 -31 -37 -10 -66 -20 -63 -22 8 -9
164 26 208 45 49 23 34 27 -32 8z"/>
<path d="M1257 1844 c-16 -9 -57 -22 -90 -29 l-62 -13 55 -1 c44 -1 63 4 93
24 20 14 37 28 37 30 0 7 -1 6 -33 -11z"/>
<path d="M1766 1851 c13 -12 74 -31 98 -31 12 1 35 7 51 15 29 14 29 14 -20 9
-27 -3 -70 -1 -94 4 -24 6 -39 7 -35 3z"/>
<path d="M1824 1789 c12 -8 25 -8 40 -1 18 9 16 11 -19 11 -33 0 -37 -1 -21
-10z"/>
<path d="M1444 1474 c42 -30 110 -30 151 0 18 13 15 13 -28 3 -34 -7 -60 -7
-94 0 -42 10 -46 10 -29 -3z"/>
<path d="M1880 880 c-56 -28 -103 -32 -176 -15 -37 8 -69 13 -72 11 -8 -8 72
-38 116 -43 35 -5 42 -9 36 -22 -16 -39 -34 -106 -33 -125 0 -12 8 2 18 30 30
83 50 113 84 128 37 17 73 44 66 50 -2 2 -20 -4 -39 -14z"/>
<path d="M1365 744 c-40 -15 -121 -15 -157 1 -10 4 -18 3 -18 -3 0 -5 25 -17
55 -26 59 -19 83 -15 155 24 42 23 22 25 -35 4z"/>
<path d="M840 666 c0 -17 46 -54 105 -84 22 -11 67 -43 100 -71 33 -27 62 -48
64 -45 7 7 -39 53 -103 102 l-59 45 54 18 54 17 -78 -5 c-69 -5 -81 -4 -108
16 -22 17 -29 18 -29 7z"/>
<path d="M732 587 c-33 -12 -50 -23 -44 -29 14 -14 84 8 104 32 22 25 10 24
-60 -3z"/>
<path d="M653 554 c21 -14 41 -24 43 -21 5 5 -62 47 -74 47 -4 0 11 -12 31
-26z"/>
<path d="M1386 567 c5 -6 20 -32 36 -56 15 -24 35 -67 44 -95 16 -49 44 -101
44 -81 -1 28 -53 164 -76 196 -24 34 -66 67 -48 36z"/>
</g>
</svg>
